# 3ds Max Wavefront OBJ Exporter v0.97b - (c)2007 guruware
# File Created: 08.05.2013 04:09:41

mtllib 20785_Truncated_Great_Dodecahedron_V1.mtl

#
# object 20785_Truncated_Great_Dodecahedron?_?
#

v  -1.3535 0.4505 0.0118
v  -0.3248 0.4458 0.0118
v  -0.5268 -0.1539 0.0118
v  0.3143 0.4488 0.0118
v  1.3429 0.4434 0.0118
v  0.5116 -0.1688 0.0118
v  -0.0027 1.4265 0.0118
v  -0.0122 -0.5377 0.0118
v  -0.8427 -1.1358 0.0118
v  0.8238 -1.1401 0.0118
v  -3.5564 -3.4568 3.7376
v  -3.0407 -3.2910 2.8631
v  -2.7279 -3.7262 3.1995
v  -2.7244 -3.1840 2.3181
v  -2.2082 -3.0188 1.4439
v  -2.2002 -3.5657 2.3195
v  -3.5564 -2.5807 2.3200
v  -2.2069 -3.8990 2.8666
v  -2.2082 -4.4363 3.7376
v  -1.3750 -4.1656 2.3200
v  1.3423 -4.1647 2.3106
v  2.1703 -3.5543 2.2963
v  2.1753 -3.8843 2.8362
v  2.6830 -3.1730 2.2822
v  3.5111 -2.5630 2.2685
v  3.0139 -3.2717 2.8309
v  2.1554 -3.0195 1.4136
v  2.6959 -3.7125 3.1702
v  2.1955 -4.4158 3.7200
v  3.5358 -3.4259 3.6940
v  3.5459 1.1348 1.4436
v  3.8647 1.5707 2.3191
v  4.0580 0.9682 2.3145
v  4.0602 1.8466 2.8615
v  4.3792 2.2817 3.7373
v  4.3841 1.3993 3.2013
v  3.5459 2.5524 2.3197
v  4.3800 0.8578 2.8588
v  4.3792 -0.0120 2.3197
v  4.8942 0.6968 3.7373
v  2.1664 4.4606 6.0430
v  2.1650 3.9205 6.9185
v  2.6762 3.7560 6.5837
v  2.1591 3.5876 7.4640
v  2.1584 3.0472 8.3393
v  2.6835 3.2062 7.4647
v  1.3292 4.1938 7.4589
v  3.0000 3.3140 6.9182
v  3.5131 3.4790 6.0482
v  3.5081 2.6054 7.4674
v  -3.5552 3.4657 6.0508
v  -3.0419 3.2975 6.9262
v  -2.7276 3.7328 6.5915
v  -2.7272 3.1890 7.4718
v  -2.2134 3.0213 8.3471
v  -2.2024 3.5698 7.4725
v  -3.5601 2.5869 7.4667
v  -2.2071 3.9042 6.9259
v  -2.2054 4.4431 6.0560
v  -1.3762 4.1684 7.4751
v  -4.3956 -2.3141 6.0499
v  -4.0770 -1.8780 6.9254
v  -4.3939 -1.4445 6.5906
v  -3.8766 -1.6121 7.4710
v  -3.5583 -1.1753 8.3462
v  -4.0766 -0.9953 7.4717
v  -3.5614 -2.5903 7.4659
v  -4.3961 -0.8965 6.9251
v  -4.9081 -0.7284 6.0551
v  -4.3906 -0.0246 7.4743
v  1.3729 -4.1573 7.4980
v  0.3442 -4.1565 7.4995
v  0.5426 -4.4253 6.9620
v  -0.2949 -4.1534 7.5057
v  -1.3235 -4.1530 7.5064
v  -0.4960 -4.4291 6.9543
v  0.0281 -3.7171 8.3783
v  0.0256 -4.5955 6.6215
v  0.8524 -4.8652 6.0821
v  -0.8141 -4.8626 6.0873
v  3.5390 -1.1816 8.3544
v  3.8638 -1.6050 7.4749
v  4.0533 -1.0014 7.4874
v  4.0631 -1.8731 6.9301
v  4.3882 -2.2958 6.0505
v  4.3855 -1.4199 6.5969
v  3.5512 -2.5886 7.4615
v  4.3767 -0.8825 6.9457
v  4.3683 -0.0192 7.4952
v  4.8932 -0.7079 6.0713
v  0.0131 -1.4165 9.7806
v  0.3240 -0.4359 9.7806
v  -0.3087 -0.4444 9.7806
v  0.5228 0.1715 9.7806
v  0.8329 1.1523 9.7806
v  -0.0046 0.5487 9.7806
v  1.3562 -0.4299 9.7806
v  -0.5164 0.1631 9.7806
v  -1.3402 -0.4440 9.7806
v  -0.8335 1.1435 9.7806
v  0.8141 4.8817 3.7324
v  0.4926 4.4447 2.8584
v  -0.0156 4.6133 3.1956
v  0.2985 4.1724 2.3137
v  -0.0236 3.7355 1.4400
v  -0.3498 4.1736 2.3161
v  1.3263 4.1725 2.3140
v  -0.5394 4.4473 2.8635
v  -0.8524 4.8830 3.7350
v  -1.3701 4.1746 2.3182
v  -4.4075 2.2934 3.7490
v  -4.0916 1.8519 2.8753
v  -4.4091 1.4210 3.2128
v  -3.8928 1.5827 2.3308
v  -3.5773 1.1405 1.4573
v  -4.0945 0.9665 2.3336
v  -3.5750 2.5600 2.3302
v  -4.4133 0.8713 2.8812
v  -4.9243 0.7091 3.7529
v  -4.4112 -0.0034 2.3365
v  -0.9514 1.2901 2.8131
v  -1.5319 -0.4933 2.8156
v  -0.0109 -1.5909 2.8070
v  1.5015 -0.4952 2.8024
v  0.9242 1.2845 2.8078
v  1.4954 2.0895 4.4031
v  -0.0148 2.5839 5.3851
v  -1.5326 2.0845 4.4080
v  -2.4655 0.7942 5.3868
v  -2.4652 -0.8022 4.4082
v  -1.5241 -2.0810 5.3929
v  -0.9301 -1.2915 6.9884
v  -1.5249 0.4898 6.9805
v  -0.0140 1.6034 6.9775
v  1.5009 0.4916 6.9853
v  2.4398 0.7947 5.3877
v  2.4429 -0.7926 4.3928
v  1.5130 -2.0773 5.3954
v  0.9372 -1.2895 6.9855
v  -0.0042 -2.5702 4.4017
# 140 vertices

vn -0.0000 -0.0000 -1.0000
vn 0.0000 -0.0000 -1.0000
vn 0.0000 0.0000 -1.0000
vn -0.5257 -0.7236 -0.4472
vn 0.5257 -0.7236 -0.4472
vn 0.8507 0.2764 -0.4472
vn 0.5257 0.7236 0.4472
vn -0.5257 0.7236 0.4472
vn -0.8507 -0.2764 0.4472
vn 0.0000 -0.8944 0.4472
vn -0.0000 -0.8944 0.4472
vn 0.8507 -0.2764 0.4472
vn 0.0000 0.0000 1.0000
vn -0.0000 0.8944 -0.4472
vn 0.0000 0.8944 -0.4472
vn -0.8507 0.2764 -0.4472
vn -0.8506 0.2764 -0.4472
vn 0.8699 -0.3544 0.3430
vn 0.8680 -0.3470 0.3552
vn 0.8502 -0.2518 0.4624
vn 0.8594 -0.2718 0.4331
vn 0.4963 0.7932 0.3530
vn 0.4879 0.8039 0.3400
vn 0.5276 0.7270 0.4394
vn 0.5453 0.6954 0.4680
vn -0.1272 -0.0343 0.9913
vn -0.1361 -0.0390 0.9899
vn -0.0188 -0.0004 0.9998
vn 0.0059 0.0125 0.9999
vn 0.0043 0.9577 -0.2877
vn 0.0458 0.9551 -0.2928
vn 0.0919 0.9434 -0.3186
vn 0.1566 -0.0515 -0.9863
vn 0.1353 -0.0955 -0.9862
vn 0.0947 -0.1355 -0.9862
vn -0.9090 0.1209 -0.3989
vn -0.9213 0.1475 -0.3598
vn -0.9257 0.1940 -0.3246
vn -0.3963 -0.8273 -0.3982
vn -0.4243 -0.8308 -0.3603
vn -0.4691 -0.8208 -0.3261
vn -0.9108 0.2930 -0.2910
vn -0.8929 0.3384 -0.2970
vn -0.8658 0.3835 -0.3214
vn 0.0983 0.1386 -0.9855
vn 0.1315 0.1064 -0.9856
vn 0.1546 0.0554 -0.9864
vn 0.6610 -0.6337 -0.4019
vn 0.6552 -0.6636 -0.3610
vn 0.6320 -0.7039 -0.3242
vn -0.5591 -0.7759 -0.2921
vn -0.6013 -0.7410 -0.2990
vn -0.6379 -0.7008 -0.3195
vn -0.1132 0.1304 -0.9850
vn -0.0656 0.1556 -0.9856
vn -0.0054 0.1648 -0.9863
vn 0.8021 0.4337 -0.4106
vn 0.8334 0.4161 -0.3639
vn 0.8665 0.3806 -0.3230
vn 0.5673 -0.7703 -0.2913
vn 0.5220 -0.7990 -0.2984
vn 0.4715 -0.8209 -0.3222
vn -0.1560 -0.0563 -0.9862
vn -0.1659 0.0028 -0.9861
vn -0.1611 0.0639 -0.9849
vn -0.1538 0.9058 -0.3949
vn -0.1317 0.9257 -0.3547
vn -0.0907 0.9436 -0.3184
vn 0.9112 0.2955 -0.2871
vn 0.9224 0.2517 -0.2930
vn 0.9260 0.2021 -0.3188
vn 0.0003 -0.1686 -0.9857
vn -0.0469 -0.1620 -0.9857
vn -0.0969 -0.1351 -0.9861
vn -0.0956 0.8152 -0.5713
vn -0.1292 0.8300 -0.5426
vn -0.1525 0.8547 -0.4963
vn 0.4046 0.7238 0.5590
vn 0.4328 0.6906 0.5794
vn 0.4764 0.6546 0.5870
vn 0.9089 0.1263 -0.3974
vn 0.8918 0.1123 -0.4382
vn 0.8662 0.1143 -0.4865
vn -0.6652 0.6360 0.3913
vn -0.6593 0.6144 0.4333
vn -0.6357 0.6015 0.4837
vn 0.5592 0.6081 0.5634
vn 0.5982 0.5995 0.5317
vn 0.6330 0.6027 0.4859
vn 0.1055 0.8243 -0.5562
vn 0.0551 0.8126 -0.5802
vn -0.0055 0.8069 -0.5907
vn -0.8070 0.1659 -0.5668
vn -0.8349 0.1347 -0.5337
vn -0.8663 0.1162 -0.4858
vn -0.5662 0.6044 0.5604
vn -0.5244 0.6221 0.5814
vn -0.4755 0.6536 0.5887
vn 0.1572 0.9031 -0.3995
vn 0.1655 0.8813 -0.4427
vn 0.1570 0.8565 -0.4918
vn -0.8127 -0.4294 0.3939
vn -0.7881 -0.4308 0.4397
vn -0.7659 -0.4140 0.4920
vn -0.4012 0.7200 0.5663
vn -0.3827 0.7520 0.5367
vn -0.3774 0.7847 0.4917
vn -0.7526 0.3543 -0.5551
vn -0.7567 0.3053 -0.5781
vn -0.7700 0.2477 -0.5880
vn -0.4050 -0.7160 -0.5686
vn -0.3845 -0.7510 -0.5367
vn -0.3777 -0.7863 -0.4889
vn -0.7460 -0.3533 0.5645
vn -0.7497 -0.3105 0.5845
vn -0.7653 -0.2554 0.5908
vn -0.8100 0.4329 -0.3956
vn -0.7879 0.4342 -0.4367
vn -0.7682 0.4173 -0.4855
vn 0.1631 -0.9055 0.3917
vn 0.1711 -0.8845 0.4341
vn 0.1602 -0.8602 0.4842
vn -0.8083 -0.1628 0.5658
vn -0.8334 -0.1347 0.5360
vn -0.8631 -0.1182 0.4910
vn -0.5696 -0.6133 -0.5472
vn -0.5189 -0.6345 -0.5728
vn -0.4650 -0.6639 -0.5857
vn 0.1567 0.0454 0.9866
vn 0.1313 0.0968 0.9866
vn 0.0894 0.1428 0.9857
vn -0.9073 -0.1290 0.4003
vn -0.9197 -0.1571 0.3599
vn -0.9240 -0.2025 0.3242
vn -0.0003 -0.9569 0.2904
vn 0.0498 -0.9537 0.2968
vn 0.1011 -0.9419 0.3203
vn 0.0936 -0.1378 0.9860
vn 0.1307 -0.1018 0.9862
vn 0.1577 -0.0502 0.9862
vn -0.4000 0.8216 0.4062
vn -0.4316 0.8254 0.3639
vn -0.4774 0.8160 0.3259
vn -0.9096 -0.2942 0.2933
vn -0.8912 -0.3407 0.2996
vn -0.8643 -0.3858 0.3228
vn 0.6601 0.6326 0.4051
vn 0.6537 0.6647 0.3617
vn 0.6303 0.7059 0.3230
vn -0.5589 0.7755 0.2937
vn -0.6007 0.7407 0.3007
vn -0.6378 0.6989 0.3237
vn -0.1015 -0.1307 0.9862
vn -0.0542 -0.1552 0.9864
vn 0.0035 -0.1652 0.9862
vn 0.8690 -0.4237 0.2556
vn 0.4502 0.8556 0.2555
vn -0.2320 -0.0703 0.9702
vn 0.8170 0.1556 -0.5552
vn 0.7939 0.1935 -0.5764
vn 0.7730 0.2492 -0.5834
vn 0.3955 0.8273 0.3989
vn 0.3789 0.8167 0.4353
vn 0.3756 0.7916 0.4820
vn 0.7472 -0.3420 0.5699
vn 0.7508 -0.3783 0.5414
vn 0.7662 -0.4080 0.4964
vn 0.4010 -0.8303 -0.3869
vn 0.3826 -0.8184 -0.4288
vn 0.3793 -0.7907 -0.4805
vn 0.7496 0.3519 -0.5605
vn 0.7531 0.3912 -0.5290
vn 0.7649 0.4236 -0.4853
vn 0.8271 -0.1506 0.5414
vn 0.7969 -0.2022 0.5693
vn 0.7693 -0.2615 0.5830
vn -0.0722 -0.8216 0.5654
vn -0.1164 -0.8411 0.5283
vn -0.1494 -0.8665 0.4762
vn 0.4022 -0.7137 -0.5734
vn 0.4262 -0.6857 -0.5901
vn 0.4677 -0.6547 -0.5939
vn 0.9154 -0.1224 0.3835
vn 0.8984 -0.1081 0.4256
vn 0.8731 -0.1097 0.4750
vn -0.1616 -0.9112 0.3790
vn -0.1451 -0.9259 0.3488
vn -0.1043 -0.9413 0.3209
vn 0.9127 -0.2894 0.2886
vn 0.9246 -0.2414 0.2947
vn 0.9290 -0.1894 0.3181
vn 0.0015 0.1761 0.9844
vn -0.0425 0.1695 0.9846
vn -0.0911 0.1381 0.9862
vn 0.1050 -0.8215 0.5604
vn 0.0607 -0.8111 0.5817
vn 0.0059 -0.8068 0.5908
vn -0.6613 -0.6494 -0.3755
vn -0.6560 -0.6261 -0.4216
vn -0.6336 -0.6109 -0.4747
vn 0.5540 -0.6113 -0.5652
vn 0.5941 -0.6021 -0.5334
vn 0.6306 -0.6047 -0.4864
vn -0.7503 -0.3841 0.5381
vn -0.7886 0.1950 -0.5832
vn -0.8095 0.1608 -0.5647
vn -0.3848 0.8109 0.4409
vn -0.4047 0.8236 0.3973
vn -0.7466 -0.3473 0.5674
vn -0.3841 -0.8140 -0.4358
vn -0.7542 0.3871 -0.5303
vn -0.7507 0.3499 -0.5604
vn -0.7874 -0.2011 0.5827
vn -0.8120 -0.1605 0.5611
vn -0.4041 -0.8270 -0.3908
vn 0.1342 -0.8368 0.5308
vn -0.4209 -0.6940 -0.5841
vn -0.3985 -0.7198 -0.5685
vn -0.8900 -0.1172 0.4407
vn -0.9074 -0.1321 0.3989
vn 0.0981 -0.8212 0.5621
vn 0.6545 -0.6181 -0.4354
vn -0.5991 -0.6064 -0.5228
vn -0.5617 -0.6149 -0.5535
vn -0.0466 -0.8086 0.5865
vn -0.0841 -0.8178 0.5694
vn 0.6602 -0.6397 -0.3936
vn 0.8445 -0.1264 0.5205
vn 0.5157 -0.6260 -0.5849
vn 0.5599 -0.6074 -0.5636
vn -0.1640 -0.8913 0.4227
vn -0.1560 -0.9116 0.3804
vn 0.8209 -0.1543 0.5498
vn -0.1343 0.0913 0.9867
vn 0.9250 -0.1450 0.3511
vn 0.9137 -0.1194 0.3884
vn -0.0503 -0.9525 0.3005
vn 0.0056 -0.9560 0.2932
vn -0.1609 0.0376 0.9863
vn 0.0426 0.1723 0.9841
vn 0.1426 -0.9239 0.3550
vn 0.1628 -0.9052 0.3925
vn -0.9197 -0.2541 0.2993
vn -0.9076 -0.3005 0.2931
vn 0.0008 0.1780 0.9840
vn -0.5264 0.7955 0.3000
vn 0.1690 0.0047 0.9856
vn 0.1610 0.0494 0.9857
vn -0.8349 -0.4194 0.3563
vn -0.8112 -0.4329 0.3932
vn -0.5670 0.7694 0.2940
vn 0.5953 0.7468 0.2966
vn 0.0587 -0.1600 0.9854
vn 0.0978 -0.1393 0.9854
vn -0.6617 0.6600 0.3558
vn -0.6668 0.6344 0.3911
vn 0.5579 0.7774 0.2906
vn 0.6562 0.6157 0.4363
vn -0.6002 0.5983 0.5308
vn -0.5607 0.6072 0.5630
vn -0.0618 0.8074 -0.5867
vn -0.1007 0.8165 -0.5685
vn 0.6617 0.6368 0.3958
vn -0.4308 0.6903 0.5814
vn -0.8939 0.1130 -0.4338
vn -0.9115 0.1275 -0.3911
vn 0.1347 0.8339 -0.5353
vn 0.1030 0.8202 -0.5628
vn -0.4015 0.7243 0.5605
vn 0.1319 0.9245 -0.3575
vn -0.9211 0.2482 -0.2999
vn -0.9083 0.2984 -0.2931
vn 0.1555 0.9028 -0.4008
vn 0.0450 -0.1626 -0.9857
vn -0.0022 -0.1694 -0.9855
vn -0.0416 0.9550 -0.2935
vn -0.1376 -0.0951 -0.9859
vn -0.1589 -0.0510 -0.9860
vn 0.9209 0.1570 -0.3567
vn 0.9079 0.1284 -0.3990
vn 0.0051 0.9578 -0.2874
vn -0.1610 0.8822 -0.4425
vn 0.8374 0.1302 -0.5309
vn 0.8128 0.1578 -0.5607
vn -0.1516 0.9061 -0.3950
vn 0.5235 0.6242 0.5800
vn 0.5638 0.6072 0.5598
vn 0.3848 0.7575 0.5274
vn 0.7580 0.3090 -0.5744
vn 0.7535 0.3581 -0.5513
vn 0.7887 -0.4247 0.4444
vn 0.8132 -0.4234 0.3993
vn 0.4057 0.7220 0.5604
vn 0.7819 0.4414 -0.4403
vn 0.8010 0.4401 -0.4058
vn 0.7499 -0.3151 0.5817
vn 0.7466 -0.3510 0.5651
vn 0.3899 -0.7522 -0.5312
vn 0.4130 -0.7128 -0.5669
vn 0.8945 0.3361 -0.2949
vn -0.1444 0.1134 -0.9830
vn -0.1184 0.1388 -0.9832
vn 0.4263 -0.8315 -0.3561
vn 0.9114 0.2929 -0.2890
vn 0.3991 -0.8283 -0.3932
vn 0.5970 -0.7445 -0.2989
vn 0.0544 0.1577 -0.9860
vn 0.0983 0.1344 -0.9860
vn -0.6616 -0.6645 -0.3473
vn -0.6667 -0.6423 -0.3780
vn 0.5588 -0.7759 -0.2926
vn 0.1637 -0.0026 -0.9865
vn -0.8356 0.4176 -0.3569
vn -0.8099 0.4323 -0.3965
vn -0.5198 -0.7991 -0.3021
vn -0.5638 -0.7712 -0.2955
vn 0.1550 -0.0536 -0.9865
# 317 vertex normals

vt -0.0850 0.3616 -0.3624
vt -0.0410 0.3343 -0.3793
vt -0.0683 0.3178 -0.3895
vt 0.0747 0.2628 -0.4235
vt 0.1376 0.2240 -0.4475
vt 0.0556 0.2240 -0.4475
vt 0.0243 0.3240 -0.3856
vt 0.0850 0.3616 -0.3624
vt 0.0606 0.2977 -0.4019
vt -0.0861 0.2240 -0.4475
vt -0.1376 0.2240 -0.4475
vt -0.0928 0.2516 -0.4304
vt 0.0163 0.1817 -0.4736
vt 0.0000 0.1390 -0.5000
vt -0.0165 0.1823 -0.4732
vt 0.0203 0.2529 -0.4296
vt -0.0187 0.2287 -0.4445
vt -0.0152 0.2432 -0.4356
vt 0.0217 0.2766 -0.4149
vt -0.0161 0.2762 -0.4152
vt -0.0516 0.2666 -0.4211
vt -0.0174 0.2525 -0.4299
vt -0.0165 0.2195 -0.4502
vt 0.0176 0.2054 -0.4589
vt -0.0520 0.2099 -0.4562
vt -0.0178 0.1958 -0.4649
vt -0.0529 0.2428 -0.4358
vt -0.0884 0.2332 -0.4418
# 28 texture coords

g 20785_Truncated_Great_Dodecahedron?_?
usemtl 20785_Truncated_Great_Dodecahedron
s 1
f 1/1/1 2/2/2 3/3/1 
f 4/4/3 5/5/1 6/6/2 
f 2/7/2 7/8/3 4/9/3 
f 8/10/1 9/11/1 3/12/1 
f 6/13/2 10/14/1 8/15/1 
f 2/7/2 6/13/2 8/10/1 3/12/1 
f 6/13/2 2/7/2 4/16/3 
f 11/1/4 12/2/4 13/3/4 
f 14/4/4 15/5/4 16/6/4 
f 12/7/4 17/8/4 14/9/4 
f 18/10/4 19/11/4 13/12/4 
f 16/13/4 20/14/4 18/15/4 
f 12/7/4 16/13/4 18/10/4 13/12/4 
f 16/13/4 12/7/4 14/16/4 
f 21/1/5 22/2/5 23/3/5 
f 24/4/5 25/5/5 26/6/5 
f 22/7/5 27/8/5 24/9/5 
f 28/10/5 29/11/5 23/12/5 
f 26/13/5 30/14/5 28/15/5 
f 22/7/5 26/13/5 28/10/5 23/12/5 
f 26/13/5 22/7/5 24/16/5 
f 31/1/6 32/2/6 33/3/6 
f 34/4/6 35/5/6 36/6/6 
f 32/7/6 37/8/6 34/9/6 
f 38/10/6 39/11/6 33/12/6 
f 36/13/6 40/14/6 38/15/6 
f 32/7/6 36/13/6 38/10/6 33/12/6 
f 36/13/6 32/7/6 34/16/6 
f 41/1/7 42/2/7 43/3/7 
f 44/4/7 45/5/7 46/6/7 
f 42/7/7 47/8/7 44/9/7 
f 48/10/7 49/11/7 43/12/7 
f 46/13/7 50/14/7 48/15/7 
f 42/7/7 46/13/7 48/10/7 43/12/7 
f 46/13/7 42/7/7 44/16/7 
f 51/1/8 52/2/8 53/3/8 
f 54/4/8 55/5/8 56/6/8 
f 52/7/8 57/8/8 54/9/8 
f 58/10/8 59/11/8 53/12/8 
f 56/13/8 60/14/8 58/15/8 
f 52/7/8 56/13/8 58/10/8 53/12/8 
f 56/13/8 52/7/8 54/16/8 
f 61/1/9 62/2/9 63/3/9 
f 64/4/9 65/5/9 66/6/9 
f 62/7/9 67/8/9 64/9/9 
f 68/10/9 69/11/9 63/12/9 
f 66/13/9 70/14/9 68/15/9 
f 62/7/9 66/13/9 68/10/9 63/12/9 
f 66/13/9 62/7/9 64/16/9 
f 71/1/10 72/2/11 73/3/10 
f 74/4/11 75/5/10 76/6/11 
f 72/7/11 77/8/11 74/9/11 
f 78/10/11 79/11/11 73/12/10 
f 76/13/11 80/14/11 78/15/11 
f 72/7/11 76/13/11 78/10/11 73/12/10 
f 76/13/11 72/7/11 74/16/11 
f 81/1/12 82/2/12 83/3/12 
f 84/4/12 85/5/12 86/6/12 
f 82/7/12 87/8/12 84/9/12 
f 88/10/12 89/11/12 83/12/12 
f 86/13/12 90/14/12 88/15/12 
f 82/7/12 86/13/12 88/10/12 83/12/12 
f 86/13/12 82/7/12 84/16/12 
f 91/1/13 92/2/13 93/3/13 
f 94/4/13 95/5/13 96/6/13 
f 92/7/13 97/8/13 94/9/13 
f 98/10/13 99/11/13 93/12/13 
f 96/13/13 100/14/13 98/15/13 
f 92/7/13 96/13/13 98/10/13 93/12/13 
f 96/13/13 92/7/13 94/16/13 
f 101/1/14 102/2/14 103/3/14 
f 104/4/15 105/5/15 106/6/15 
f 102/7/14 107/8/14 104/9/15 
f 108/10/14 109/11/15 103/12/14 
f 106/13/15 110/14/15 108/15/14 
f 102/7/14 106/13/15 108/10/14 103/12/14 
f 106/13/15 102/7/14 104/16/15 
f 111/1/16 112/2/16 113/3/16 
f 114/4/16 115/5/16 116/6/16 
f 112/7/16 117/8/16 114/9/16 
f 118/10/16 119/11/16 113/12/16 
f 116/13/16 120/14/17 118/15/16 
f 112/7/16 116/13/16 118/10/16 113/12/16 
f 116/13/16 112/7/16 114/16/16 
s 2
f 94/16/18 46/6/19 45/5/20 95/5/21 
s 4
f 83/12/22 94/16/23 97/8/24 81/1/25 
s 8
f 46/13/26 83/12/27 89/11/28 50/14/29 
s 2
f 2/2/30 1/1/31 121/16/32 
s 4
f 114/16/33 117/8/34 121/16/35 
s 8
f 106/6/36 105/5/37 121/16/38 
s 4
f 116/6/39 115/5/40 122/17/41 
s 2
f 3/12/42 9/11/43 122/17/44 
s 8
f 14/16/45 17/8/46 122/17/47 
s 4
f 16/6/48 15/5/49 123/18/50 
s 2
f 8/10/51 10/14/52 123/18/53 
s 8
f 22/2/54 21/1/55 123/18/56 
s 4
f 24/16/57 27/8/58 124/17/59 
s 2
f 6/6/60 5/5/61 124/17/62 
s 8
f 33/12/63 39/11/64 124/17/65 
s 4
f 32/2/66 31/1/67 125/19/68 
s 2
f 4/16/69 7/8/70 125/19/71 
s 8
f 104/16/72 107/8/73 125/19/74 
s 2
f 43/12/75 49/11/76 126/20/77 
s 4
f 34/16/78 37/8/79 126/20/80 
s 8
f 102/2/81 101/1/82 126/20/83 
s 2
f 42/2/84 41/1/85 127/21/86 
s 4
f 103/12/87 109/11/88 127/21/89 
s 8
f 58/10/90 60/14/91 127/21/92 
s 2
f 53/12/93 59/11/94 128/21/95 
s 8
f 108/10/96 110/14/97 128/21/98 
s 4
f 112/2/99 111/1/100 128/21/101 
s 2
f 52/2/102 51/1/103 129/21/104 
s 4
f 113/12/105 119/11/106 129/21/107 
s 8
f 68/10/108 70/14/109 129/21/110 
s 2
f 63/12/111 69/11/112 130/21/113 
s 4
f 118/10/114 120/14/115 130/21/116 
s 8
f 12/2/117 11/1/118 130/21/119 
s 2
f 62/2/120 61/1/121 131/22/122 
s 4
f 13/12/123 19/11/124 131/22/125 
s 8
f 76/6/126 75/5/127 131/22/128 
s 2
f 64/16/129 67/8/130 132/22/131 
s 4
f 74/16/132 77/8/133 132/22/134 
s 8
f 93/12/135 99/11/136 132/22/137 
s 2
f 54/16/138 57/8/139 133/23/140 
s 4
f 66/6/141 65/5/142 133/23/143 
s 8
f 98/10/144 100/14/145 133/23/146 
s 2
f 56/6/147 55/5/148 134/24/149 
s 4
f 96/6/150 95/5/151 134/24/152 
s 16
f 44/16/153 47/8/154 134/24/155 
s 2
f 46/6/19 94/16/18 135/17/156 
s 4
f 94/16/23 83/12/22 135/17/157 
s 8
f 83/12/27 46/13/26 135/17/158 
s 2
f 48/10/159 50/14/160 136/25/161 
s 4
f 88/10/162 90/14/163 136/25/164 
s 8
f 36/6/165 35/5/166 136/25/167 
s 2
f 38/10/168 40/14/169 137/26/170 
s 4
f 86/6/171 85/5/172 137/26/173 
s 16
f 26/6/174 25/5/175 137/26/176 
s 2
f 28/10/177 30/14/178 138/27/179 
s 4
f 84/16/180 87/8/181 138/27/182 
s 8
f 73/12/183 79/11/184 138/27/185 
s 2
f 82/2/186 81/1/187 139/7/188 
s 8
f 92/2/189 91/1/190 139/7/191 
s 16
f 72/2/192 71/1/193 139/7/194 
s 2
f 18/10/195 20/14/196 140/28/197 
s 4
f 23/12/198 29/11/199 140/28/200 
s 8
f 78/10/201 80/14/202 140/28/203 
s 2
f 51/1/103 111/1/204 129/21/104 
s 8
f 57/8/205 52/7/206 129/21/110 
f 70/14/109 57/8/205 129/21/110 
s 4
f 69/11/207 68/10/208 129/21/107 
s 2
f 111/1/204 113/12/209 129/21/104 
s 4
f 119/11/106 69/11/207 129/21/107 
s 2
f 69/11/112 119/11/210 130/21/113 
s 8
f 61/1/211 63/12/212 130/21/119 
f 11/1/118 61/1/211 130/21/119 
s 4
f 17/8/213 12/7/214 130/21/116 
f 120/14/115 17/8/213 130/21/116 
s 2
f 119/11/210 118/10/215 130/21/113 
f 61/1/121 11/1/216 131/22/122 
s 8
f 67/8/217 62/7/218 131/22/128 
f 75/5/127 67/8/217 131/22/128 
s 4
f 80/14/219 76/13/220 131/22/125 
f 19/11/124 80/14/219 131/22/125 
s 2
f 11/1/216 13/12/221 131/22/122 
s 8
f 80/14/202 19/11/222 140/28/203 
s 4
f 79/11/223 78/10/224 140/28/200 
f 29/11/199 79/11/223 140/28/200 
s 2
f 21/1/225 23/12/226 140/28/197 
f 20/14/196 21/1/225 140/28/197 
s 8
f 19/11/222 18/10/227 140/28/203 
f 79/11/184 29/11/228 138/27/185 
s 4
f 71/1/229 73/12/230 138/27/182 
f 87/8/181 71/1/229 138/27/182 
s 2
f 85/5/231 84/16/232 138/27/179 
f 30/14/178 85/5/231 138/27/179 
s 8
f 29/11/228 28/10/233 138/27/185 
s 16
f 71/1/193 87/8/234 139/7/194 
s 8
f 77/8/235 72/7/236 139/7/191 
f 91/1/190 77/8/235 139/7/191 
s 2
f 97/8/237 92/7/238 139/7/188 
f 81/1/187 97/8/237 139/7/188 
s 16
f 87/8/234 82/7/239 139/7/194 
s 2
f 67/8/130 75/5/240 132/22/131 
s 8
f 65/5/241 64/16/242 132/22/137 
f 99/11/136 65/5/241 132/22/137 
s 4
f 91/1/243 93/12/244 132/22/134 
f 77/8/133 91/1/243 132/22/134 
s 2
f 75/5/240 74/16/245 132/22/131 
s 4
f 65/5/142 99/11/246 133/23/143 
s 2
f 70/14/247 66/13/248 133/23/140 
f 57/8/139 70/14/247 133/23/140 
s 8
f 55/5/249 54/16/250 133/23/146 
f 100/14/145 55/5/249 133/23/146 
s 4
f 99/11/246 98/10/251 133/23/143 
s 2
f 55/5/148 100/14/252 134/24/149 
s 16
f 60/14/253 56/13/254 134/24/155 
f 47/8/154 60/14/253 134/24/155 
s 4
f 45/5/255 44/16/256 134/24/152 
s 2
f 100/14/252 96/13/257 134/24/149 
s 4
f 95/5/151 45/5/255 134/24/152 
f 109/11/88 59/11/258 127/21/89 
s 2
f 101/1/259 103/12/260 127/21/86 
f 41/1/85 101/1/259 127/21/86 
s 8
f 47/8/261 42/7/262 127/21/92 
f 60/14/91 47/8/261 127/21/92 
s 4
f 59/11/258 58/10/263 127/21/89 
s 8
f 110/14/97 117/8/264 128/21/98 
s 2
f 109/11/265 108/10/266 128/21/95 
f 59/11/94 109/11/265 128/21/95 
s 4
f 51/1/267 53/12/268 128/21/101 
f 111/1/100 51/1/267 128/21/101 
s 8
f 117/8/264 112/7/269 128/21/98 
s 2
f 1/1/31 115/5/270 121/16/32 
s 8
f 7/8/271 2/7/272 121/16/38 
s 2
f 115/5/270 114/16/273 121/16/32 
s 4
f 117/8/34 110/14/274 121/16/35 
f 110/14/274 106/13/275 121/16/35 
s 8
f 105/5/37 7/8/271 121/16/38 
s 4
f 31/1/67 5/5/276 125/19/68 
s 8
f 37/8/277 32/7/278 125/19/74 
f 107/8/73 37/8/277 125/19/74 
s 2
f 105/5/279 104/16/280 125/19/71 
f 7/8/70 105/5/279 125/19/71 
s 4
f 5/5/276 4/16/281 125/19/68 
s 2
f 49/11/76 35/5/282 126/20/77 
s 8
f 41/1/283 43/12/284 126/20/83 
s 2
f 35/5/282 34/16/285 126/20/77 
s 4
f 37/8/79 107/8/286 126/20/80 
f 107/8/286 102/7/287 126/20/80 
s 8
f 101/1/82 41/1/283 126/20/83 
s 4
f 90/14/163 40/14/288 136/25/164 
s 2
f 89/11/289 88/10/290 136/25/161 
f 50/14/160 89/11/289 136/25/161 
s 8
f 49/11/291 48/10/292 136/25/167 
f 35/5/166 49/11/291 136/25/167 
s 4
f 40/14/288 36/13/293 136/25/164 
f 30/14/294 26/13/295 137/26/173 
s 16
f 25/5/175 39/11/296 137/26/176 
f 39/11/296 38/10/297 137/26/176 
s 2
f 40/14/169 90/14/298 137/26/170 
f 90/14/298 86/13/299 137/26/170 
s 4
f 85/5/172 30/14/294 137/26/173 
f 27/8/58 10/14/300 124/17/59 
s 8
f 25/5/301 24/16/302 124/17/65 
s 2
f 5/5/61 31/1/303 124/17/62 
s 4
f 10/14/300 6/13/304 124/17/59 
s 2
f 31/1/303 33/12/305 124/17/62 
s 8
f 39/11/64 25/5/301 124/17/65 
s 4
f 15/5/49 9/11/306 123/18/50 
s 8
f 20/14/307 16/13/308 123/18/56 
f 21/1/55 20/14/307 123/18/56 
s 2
f 27/8/309 22/7/310 123/18/53 
f 10/14/52 27/8/309 123/18/53 
s 4
f 9/11/306 8/10/311 123/18/50 
s 8
f 17/8/46 120/14/312 122/17/47 
s 2
f 15/5/313 14/16/314 122/17/44 
f 9/11/43 15/5/313 122/17/44 
s 4
f 1/1/315 3/12/316 122/17/41 
f 115/5/40 1/1/315 122/17/41 
s 8
f 120/14/312 116/13/317 122/17/47 
# 15 polygons - 246 triangles

